<?xml version="1.0" encoding="UTF-8" standalone="no"?>
<!DOCTYPE svg PUBLIC "-//W3C//DTD SVG 1.1//EN" "http://www.w3.org/Graphics/SVG/1.1/DTD/svg11.dtd">
<!-- Created with Vectornator (http://vectornator.io/) -->
<svg height="100%" stroke-miterlimit="10" style="fill-rule:nonzero;clip-rule:evenodd;stroke-linecap:round;stroke-linejoin:round;" version="1.1" viewBox="214.168 50.7287 2241.99 1943.62" width="100%" xml:space="preserve" xmlns="http://www.w3.org/2000/svg" xmlns:vectornator="http://vectornator.io" xmlns:xlink="http://www.w3.org/1999/xlink">
<defs/>
<clipPath id="ArtboardFrame">
<rect height="1943.62" width="2241.99" x="214.168" y="50.7287"/>
</clipPath>
<g clip-path="url(#ArtboardFrame)" id="Layer" vectornator:layerName="Layer">
<path d="M889.468 345.131L895.937 270.059L902.02 199.469C902.181 197.605 904.389 196.711 905.802 197.938L950.123 236.455L996.144 276.449C997.086 277.267 998.51 277.18 999.345 276.253L1026.28 246.372L1052.85 216.893C1053.81 215.821 1055.52 215.9 1056.38 217.057L1119.94 302.3L1181.48 384.832C1182.75 386.534 1185.45 385.741 1185.59 383.623L1192.18 289.181L1199.2 188.583C1217.02 183.644 1236.49 181.953 1255.13 178.638C1273.77 175.323 1291.59 170.384 1306.13 158.949C1321.89 146.543 1332.21 129.34 1341.17 110.937C1350.13 92.5344 1357.73 72.932 1368.05 55.7287L1426.34 159.89L1484.64 264.051C1490.7 262.13 1497.55 261.489 1504 260.208C1510.46 258.927 1516.53 257.007 1521.05 252.526C1545.42 228.368 1567.65 202.232 1589.36 175.601C1611.06 148.97 1632.23 121.845 1654.47 95.7085L1674.47 165.948L1693.76 233.674C1694.14 235.005 1695.6 235.697 1696.87 235.147L1781.86 198.272L1867.2 161.243C1868.34 160.75 1869.67 161.252 1870.19 162.376L1938.23 308.371L2007.22 456.386C2010.97 439.109 2010.52 419.605 2012.17 401.214C2013.82 382.823 2017.57 365.545 2029.74 352.721C2044.38 337.295 2064.24 329.689 2085.41 324.039C2106.57 318.389 2129.05 314.695 2148.91 307.089C2141.83 327.925 2130.9 348.18 2121.9 368.725C2112.89 389.271 2105.81 410.107 2106.42 432.104C2106.84 447.166 2114.85 459.927 2124.76 472.113C2134.67 484.3 2146.47 495.911 2154.49 508.672L2112.91 556.685L2071.33 604.697C2085.63 613.113 2261.37 469.242 2277.41 476.044C2293.45 482.845 2443.46 344.428 2450.82 359.303C2462.33 382.551 2171.29 704.249 2171.7 730.693C2172.12 757.138 2170.31 784.223 2172.94 810.028L2251.35 723.962L2329.75 637.896C2327.48 661.97 2327.79 686.58 2326.81 710.922C2325.82 735.264 2323.54 759.338 2316.08 782.337C2311.39 796.792 2301.98 808.726 2291.39 820.03C2280.8 831.334 2269.03 842.008 2259.62 853.942L2321.17 918.313L2380.19 980.035C2381.36 981.259 2380.85 983.284 2379.23 983.798L2323.4 1001.58L2264.08 1020.48C2271.57 1031.67 2280.79 1042.03 2289.15 1052.8C2297.5 1063.57 2304.99 1074.76 2309.04 1087.61C2313.12 1100.58 2315.71 1114.52 2316.22 1128.45C2316.73 1142.37 2315.15 1156.29 2310.92 1169.22C2307.48 1179.71 2300.78 1188.7 2292.71 1196.69C2284.64 1204.68 2275.2 1211.66 2266.26 1218.15C2249.33 1230.43 2231.19 1240.83 2212.75 1250.77C2194.3 1260.71 2175.55 1270.17 2157.41 1280.58L2274.32 1283.9L2391.23 1287.23C2392 1298.32 2394.46 1309.56 2396.08 1320.73C2397.69 1331.89 2398.46 1342.99 2395.82 1353.79C2388.06 1385.52 2377.06 1416.28 2365.25 1446.79C2353.45 1477.31 2340.83 1507.58 2329.83 1538.34C2330.83 1524.6 2332.64 1510.87 2334.04 1497.13C2335.45 1483.4 2336.44 1469.66 2335.79 1455.9C2335.47 1449.09 2334.54 1442.06 2332.7 1435.35C2330.85 1428.63 2328.09 1422.24 2324.11 1416.71C2318.7 1409.2 2312.1 1402.56 2304.86 1396.63C2297.62 1390.71 2289.73 1385.5 2281.72 1380.88C2266.14 1371.88 2249.81 1364.34 2233.29 1357.17C2216.77 1349.99 2200.06 1343.18 2183.73 1335.64L2177.26 1377.76L2171.04 1418.25C2170.89 1419.23 2170.13 1420 2169.16 1420.16L2086.33 1434.24L2001.86 1448.59C2032.67 1462.61 2064.57 1474.61 2095.92 1487.62C2127.27 1500.63 2158.08 1514.65 2186.69 1532.74C2192.39 1536.34 2195.94 1542.9 2197.58 1550.17C2199.22 1557.44 2198.94 1565.43 2196.98 1571.88C2192.64 1586.14 2187.25 1600.95 2179.94 1614.4C2172.63 1627.86 2163.41 1639.97 2151.43 1648.83C2139.73 1657.47 2125.75 1662.47 2111.05 1665.25C2096.35 1668.04 2080.94 1668.61 2066.4 1668.41C2032.5 1667.93 1998.84 1664 1965.23 1659.2C1931.62 1654.4 1898.06 1648.73 1864.39 1644.8L1924.35 1694.09L1984.31 1743.37C1952.39 1764.91 1921.47 1788.11 1890.04 1810.48C1858.62 1832.85 1782.2 1618.56 1748.27 1636.78C1735.31 1643.73 1788.47 1729.61 1785.94 1793.57C1783.33 1859.37 1725.03 1903.27 1710.76 1908.43C1682.62 1918.6 1471.48 1831.74 1442.92 1840.38C1419.49 1847.47 1578.19 1949.69 1554.22 1955.02C1530.26 1960.36 1506.06 1964.48 1481.68 1966.73C1449.41 1969.71 1398.46 1817.5 1366 1817.47C1333.54 1817.43 1319.56 1969.58 1287.24 1967.21C1256.91 1965 1226.47 1962.14 1196.29 1957.78C1166.12 1953.42 889.255 1996.5 859.971 1988.31C827.483 1979.21 1042.23 1919.59 1010.76 1907.12C979.294 1894.65 1077.59 1713.53 1048.03 1697.27C1018.06 1680.78 1088.84 1727.82 832.572 1808.67C576.307 1889.53 694.149 1975.88 647.782 1935.65C599.973 1894.18 841.439 1581.92 816.404 1556.86C810.51 1550.96 725.136 1695.39 674.698 1689.79C625.382 1684.31 611.326 1528.54 575.918 1544.33C493.718 1580.99 542.746 1754.34 531.957 1738.89C504.312 1699.29 412.109 1495.56 389.112 1452.91C366.114 1410.26 754.935 1481.98 737.147 1437.08C724.015 1403.94 445.337 1269.32 438.081 1234.26C434.619 1217.53 532.474 1269.4 583.173 1249.35C638.732 1227.38 732.929 1233.9 748.612 1223.83C772.085 1208.75 39.2168 1108.98 261.042 1097.64C315.971 1094.83 547.103 1082.49 520.308 1078.57C467.294 1070.82 403.635 957.994 420.879 942.316C436.148 928.433 597.385 877.752 601.761 851.242C606.137 824.732 337.749 612.582 362.32 623.331C556.285 708.183 690.196 618.24 741.152 726.617C792.108 834.994 566.031 497.635 615.783 435.46C623.538 425.768 625.311 236.353 634.332 227.745C643.352 219.137 683.095 272.132 758.661 201.619C859.003 107.986 738.054 303.29 745.056 299.601C752.058 295.911 855.046 418.273 862.421 419.722C884.09 423.982 808.878 307.729 829.025 317.079C849.173 326.43 869.016 336.798 889.468 345.131Z" fill="#000000" fill-opacity="0.995495" fill-rule="nonzero" opacity="1" stroke="#000000" stroke-linecap="butt" stroke-linejoin="round" stroke-opacity="0.995495" stroke-width="10" vectornator:layerName="Oval 1"/>
</g>
</svg>
