<?xml version="1.0" encoding="UTF-8" standalone="no"?>
<!DOCTYPE svg PUBLIC "-//W3C//DTD SVG 1.1//EN" "http://www.w3.org/Graphics/SVG/1.1/DTD/svg11.dtd">
<!-- Created with Vectornator (http://vectornator.io/) -->
<svg height="100%" stroke-miterlimit="10" style="fill-rule:nonzero;clip-rule:evenodd;stroke-linecap:round;stroke-linejoin:round;" version="1.1" viewBox="0 0 2732 2048" width="100%" xml:space="preserve" xmlns="http://www.w3.org/2000/svg" xmlns:vectornator="http://vectornator.io" xmlns:xlink="http://www.w3.org/1999/xlink">
<defs/>
<g id="Layer-1" vectornator:layerName="Layer 1" visibility="hidden">
<path d="M416.338 1024C416.338 499.516 841.516 74.3383 1366 74.3383C1890.48 74.3383 2315.66 499.516 2315.66 1024C2315.66 1548.48 1890.48 1973.66 1366 1973.66C841.516 1973.66 416.338 1548.48 416.338 1024Z" fill="#000000" fill-opacity="0.995495" fill-rule="nonzero" opacity="1" stroke="none" vectornator:layerName="Oval 1"/>
</g>
<clipPath id="ArtboardFrame">
<rect height="2048" width="2732" x="0" y="0"/>
</clipPath>
<g clip-path="url(#ArtboardFrame)" id="Layer-2" vectornator:layerName="Layer 2">
<path d="M756.544 310.066L765.018 229.634L773.082 153.097C773.265 151.355 775.257 150.457 776.684 151.471L835.997 193.631L897.002 236.993C897.878 237.616 899.07 237.545 899.866 236.822L935.751 204.256L971.309 171.987C972.243 171.139 973.688 171.207 974.538 172.14L1058.44 264.177L1026.51 330.505L1137.87 433.96C1139.57 435.537 1142.27 433.883 1141.63 431.656L1107.07 310.509L1153.07 250.121L1162.27 142.341C1174.02 139.676 1192.51 176.602 1211.1 213.466C1229.41 249.803 1247.81 286.081 1259.94 284.317C1284.36 280.766 1321.33 211.581 1340.36 199.33C1361.02 186.039 1336.5 78.8675 1348.24 59.1506C1359.97 39.4337 1369.93 18.4317 1383.45 1.13687e-12L1446.66 173.716L1536.16 223.197C1544.11 221.139 1530.54 403.256 1539 401.883C1547.45 400.511 1602.34 139.334 1608.26 134.533C1624.13 121.668 1641.17 153.005 1657.78 184.276C1674.58 215.919 1664.67 291.864 1678.97 277.514C1692.18 264.254 1724.64 183.893 1730.38 146.353C1736.99 103.116 1743.03 57.8231 1758.63 42.8345L1784.83 118.089L1810.27 191.169C1810.69 192.368 1812 192.998 1813.2 192.573L1925.5 152.721L2154.33 85.2995C2156.75 84.5867 2158.37 87.7378 2156.39 89.295L2015.79 199.664L1973.92 299.858L2032.14 440.984L2036.96 327.262L2142.9 231.176L2242.99 217.438L2220.7 429.266C2225.62 410.754 2225.02 389.858 2227.18 370.154C2229.34 350.45 2234.26 331.938 2250.2 318.198C2269.38 301.671 2295.4 293.522 2323.12 287.469C2350.85 281.415 2380.28 277.457 2406.3 269.308C2397.02 291.632 2382.71 313.333 2370.92 335.345C2359.13 357.358 2349.85 379.681 2350.65 403.25C2351.19 419.387 2361.69 433.059 2374.67 446.116C2387.65 459.172 2403.11 471.613 2413.61 485.285L2359.14 536.726L2304.68 588.166C2317.16 594.175 2449.43 535.251 2522.46 466.637C2559.02 432.288 2558.22 360.931 2565.23 363.362C2586.25 370.649 2534.91 272.042 2544.55 287.98C2549.1 295.506 2647.9 334.173 2653.86 389C2657.55 422.918 2617.06 457.169 2586.82 486.715C2504.17 567.472 2417.68 650.176 2417.96 664.651C2418.5 692.985 2223.16 801.16 2226.6 828.808L2524.1 671.206L2486.63 770.004C2483.64 795.797 2640.62 675.896 2639.33 701.976C2638.04 728.056 2635.06 753.848 2625.28 778.49C2619.13 793.977 2606.81 806.764 2592.94 818.875C2579.06 830.986 2563.65 842.421 2551.32 855.208L2631.95 924.176L2709.25 990.295C2710.66 991.497 2710.13 993.782 2708.34 994.249L2634.88 1013.39L2557.17 1033.64C2566.98 1045.62 2579.06 1056.72 2590 1068.27C2600.94 1079.81 2610.76 1091.8 2616.05 1105.56C2621.41 1119.46 2624.8 1134.39 2625.46 1149.31C2626.13 1164.24 2624.07 1179.14 2618.52 1193C2614.01 1204.24 2605.24 1213.87 2594.67 1222.43C2584.1 1230.99 2571.73 1238.47 2560.02 1245.42C2537.85 1258.57 2514.08 1269.72 2489.92 1280.37C2465.76 1291.01 2441.2 1301.16 2417.44 1312.31L2570.58 1315.87L2661.83 1322.88C2662.83 1334.76 2727.96 1343.36 2730.07 1355.32C2732.19 1367.29 2733.19 1379.17 2729.73 1390.74C2719.57 1424.74 2705.16 1457.69 2689.7 1490.39C2674.23 1523.08 2657.7 1555.52 2643.3 1588.47C2644.6 1573.75 2646.97 1559.04 2648.81 1544.32C2650.65 1529.61 2651.95 1514.89 2651.1 1500.15C2650.68 1492.85 2649.47 1485.32 2647.05 1478.12C2644.63 1470.93 2641.02 1464.08 2635.8 1458.16C2628.71 1450.12 2620.07 1443 2610.59 1436.65C2601.1 1430.3 2590.76 1424.72 2580.27 1419.77C2559.86 1410.13 2538.47 1402.05 2516.83 1394.37C2495.19 1386.68 2473.3 1379.38 2451.91 1371.3L2443.44 1416.43L2435.26 1459.94C2435.08 1460.91 2434.3 1461.65 2433.33 1461.79L2324.32 1476.94L2213.69 1492.31C2254.04 1507.34 2295.82 1520.19 2336.89 1534.13C2377.96 1548.07 2418.31 1563.1 2455.79 1582.47C2463.26 1586.33 2327.73 1596.8 2329.88 1604.59C2332.02 1612.38 2448.17 1624.38 2445.6 1631.29C2439.92 1646.57 2547.55 1837.96 2537.98 1852.37C2528.4 1866.79 2397.99 1726.61 2382.29 1736.1C2366.97 1745.36 2308.6 1793.74 2289.35 1796.72C2270.09 1799.71 2317.27 1728.05 2298.22 1727.83C2253.82 1727.32 2209.72 1723.1 2165.69 1717.96C2121.67 1712.82 2077.71 1706.75 2033.61 1702.54L2112.15 1755.34L2190.7 1808.14C2148.88 1831.22 2108.37 1856.08 2067.21 1880.04C2026.05 1904.01 1925.95 1674.42 1881.5 1693.94C1864.52 1701.39 1934.16 1793.4 1930.84 1861.93C1927.42 1932.43 1771.92 1933.45 1753.23 1938.98C1746.49 1940.97 1812.65 1926.58 1835.13 1892.24C1849.38 1870.47 1860.12 1845.86 1855.48 1824.06C1846.68 1782.77 1728.06 1890.12 1728.06 1890.12C1688.04 1826.71 1683.72 1953.26 1665.7 1957.72C1655.92 1960.14 1619.64 1811.77 1507.32 1769.61C1468.18 1754.92 1528.42 1804.51 1567.85 1869.37C1612.25 1942.42 1580.03 1992.12 1579.47 2003.62C1577.31 2048 1580.53 1915.12 1548.59 1917.53C1527.73 1919.1 1508.82 1894.83 1480.59 1867.97C1451.62 1840.42 1450.42 1895.49 1428.89 1895.48C1406.64 1895.46 1366 1718.02 1353.63 1746.54C1346.16 1763.8 1318.81 1828.52 1318.81 1828.52L1324.16 1882.97C1324.16 1882.97 1321.65 1925.4 1284.54 2003.72C1281.63 2009.85 1299.74 1962.21 1271.3 1940.02C1252.9 1925.66 1228.79 1912.75 1222.05 1888.15C1205.53 1827.84 1253.23 1759.99 1231.69 1757.44C1211.91 1755.1 1140.36 1804.44 1069 1853.22C997.761 1901.92 926.708 1950.06 907.544 1945.67C864.988 1935.93 789.556 1955.89 712.646 1965.83C687.118 1969.13 823.526 1926.55 893.322 1856.53C941.573 1808.13 980.078 1765.87 964.251 1758.75C924.99 1741.09 1017.7 1791.48 682.016 1878.11C346.331 1964.73 500.693 2057.25 439.957 2014.16C377.331 1969.72 693.63 1635.16 660.837 1608.32C653.116 1601.99 541.283 1756.74 475.214 1750.74C410.615 1744.86 392.202 1577.98 345.821 1594.89C238.145 1634.17 302.369 1819.9 288.235 1803.34C252.024 1760.92 131.245 1542.64 101.121 1496.95C70.9963 1451.25 580.318 1528.09 557.016 1479.98C539.816 1444.48 69.1819 1265.83 59.6768 1228.26C55.1417 1210.34 146.913 1214.29 213.324 1192.81C286.102 1169.27 340.313 1198.63 360.856 1187.84C391.604 1171.68 38.4289 1135.15 517.744 1161.04C589.649 1164.93 308.076 1100.07 272.976 1095.87C243.553 1092.36 211.626 1068.63 186.317 1041.17C151.895 1003.82-12.2838 918.273 0.733162 908.593C7.38562 903.646 177.189 935.637 211.55 924.37C230.93 918.015 252.397 911.038 273.331 903.869C326.87 885.533 393.307 945.1 396.058 931.473C397.663 923.517 313.449 849.822 270.439 796.897C246.764 767.765 376.693 765.525 351.28 747.24C258.023 680.141 47.8169 601.616 66.0257 608.131C320.103 699.041 33.1061 210.332 99.8539 326.447C124.558 369.423 293.535 475.833 305.661 515.659C322.428 570.729 320.59 367.624 258.786 329.614C242.326 319.491 374.798 430.603 398.04 406.845C408.199 396.461 410.521 193.522 422.338 184.299C434.154 175.076 486.214 231.855 585.198 156.308C716.638 55.9887 558.204 265.238 567.376 261.285C576.548 257.332 711.454 388.431 721.115 389.984C749.5 394.548 650.978 269.993 677.369 280.012C703.761 290.03 729.754 301.139 756.544 310.066Z" fill="#000000" fill-opacity="0.995495" fill-rule="nonzero" opacity="1" stroke="#000000" stroke-linecap="butt" stroke-linejoin="round" stroke-opacity="0.995495" stroke-width="10" vectornator:layerName="Oval 1"/>
</g>
</svg>
